<?xml version="1.0" encoding="UTF-8"?>
<!DOCTYPE svg PUBLIC "-//W3C//DTD SVG 1.1//EN" "http://www.w3.org/Graphics/SVG/1.1/DTD/svg11.dtd">
<svg xmlns="http://www.w3.org/2000/svg" version="1.1" width="750px" height="750px" style="shape-rendering:geometricPrecision; text-rendering:geometricPrecision; image-rendering:optimizeQuality; fill-rule:evenodd; clip-rule:evenodd" xmlns:xlink="http://www.w3.org/1999/xlink">
<g><path style="opacity:1" fill="#fefefe" d="M -0.5,-0.5 C 249.5,-0.5 499.5,-0.5 749.5,-0.5C 749.5,249.5 749.5,499.5 749.5,749.5C 499.5,749.5 249.5,749.5 -0.5,749.5C -0.5,499.5 -0.5,249.5 -0.5,-0.5 Z"/></g>
<g><path style="opacity:1" fill="#020202" d="M 457.5,288.5 C 457.802,291.373 458.469,294.039 459.5,296.5C 464.258,307.351 468.091,318.684 471,330.5C 478.192,349.74 485.192,369.073 492,388.5C 503.055,412.998 511.722,438.331 518,464.5C 525.597,487.289 533.597,509.956 542,532.5C 542.743,534.441 542.576,536.274 541.5,538C 517.801,547.233 495.801,544.233 475.5,529C 460.765,517.638 450.932,503.138 446,485.5C 428.761,433.432 410.761,381.432 392,329.5C 388.55,317.718 384.884,306.051 381,294.5C 379.802,290.806 377.968,287.472 375.5,284.5C 371.272,294.463 367.105,304.463 363,314.5C 351.829,346.481 340.996,378.481 330.5,410.5C 328.928,413.215 327.928,416.215 327.5,419.5C 318.292,444.292 309.792,469.292 302,494.5C 291.749,517.393 274.582,532.56 250.5,540C 237.174,543.168 223.84,543.168 210.5,540C 209.484,539.481 208.818,538.647 208.5,537.5C 233.997,462.355 259.997,387.022 286.5,311.5C 287.344,309.157 288.344,306.824 289.5,304.5C 294.158,289.381 298.991,274.381 304,259.5C 320.833,221.331 349.999,204.831 391.5,210C 414.397,215.885 431.897,229.051 444,249.5C 448.537,262.555 453.037,275.555 457.5,288.5 Z"/></g>
<g><path style="opacity:1" fill="#8d8d8d" d="M 457.5,288.5 C 459.223,290.78 459.889,293.447 459.5,296.5C 458.469,294.039 457.802,291.373 457.5,288.5 Z"/></g>
<g><path style="opacity:1" fill="#989898" d="M 289.5,304.5 C 288.344,306.824 287.344,309.157 286.5,311.5C 285.908,308.369 286.908,306.036 289.5,304.5 Z"/></g>
<g><path style="opacity:1" fill="#999999" d="M 330.5,410.5 C 330.868,414.044 329.868,417.044 327.5,419.5C 327.928,416.215 328.928,413.215 330.5,410.5 Z"/></g>
<g><path style="opacity:1" fill="#929292" d="M 380.5,456.5 C 374.428,456.676 368.428,457.343 362.5,458.5C 362.611,457.883 362.944,457.383 363.5,457C 366.167,456.667 368.833,456.333 371.5,456C 374.696,455.195 377.696,455.362 380.5,456.5 Z"/></g>
<g><path style="opacity:1" fill="#030303" d="M 380.5,456.5 C 382.905,457.768 385.572,458.435 388.5,458.5C 403.057,463.222 412.89,472.889 418,487.5C 420.408,505.616 414.908,520.783 401.5,533C 383.897,544.223 366.23,544.223 348.5,533C 342.08,526.292 337.08,518.792 333.5,510.5C 333.387,505.482 333.053,500.482 332.5,495.5C 333.122,491.717 334.122,488.05 335.5,484.5C 337.245,482.967 338.245,480.967 338.5,478.5C 341.729,472.268 346.395,467.268 352.5,463.5C 354.848,463.408 356.514,462.408 357.5,460.5C 359.028,459.691 360.694,459.024 362.5,458.5C 368.428,457.343 374.428,456.676 380.5,456.5 Z"/></g>
<g><path style="opacity:1" fill="#646464" d="M 380.5,456.5 C 382.857,456.337 385.19,456.503 387.5,457C 388.056,457.383 388.389,457.883 388.5,458.5C 385.572,458.435 382.905,457.768 380.5,456.5 Z"/></g>
<g><path style="opacity:1" fill="#555555" d="M 357.5,460.5 C 356.514,462.408 354.848,463.408 352.5,463.5C 353.659,461.75 355.326,460.75 357.5,460.5 Z"/></g>
<g><path style="opacity:1" fill="#5e5e5e" d="M 338.5,478.5 C 338.245,480.967 337.245,482.967 335.5,484.5C 335.755,482.033 336.755,480.033 338.5,478.5 Z"/></g>
<g><path style="opacity:1" fill="#959595" d="M 332.5,495.5 C 333.053,500.482 333.387,505.482 333.5,510.5C 332.558,506.855 331.892,503.022 331.5,499C 331.514,497.615 331.848,496.449 332.5,495.5 Z"/></g>
</svg>
